Coordinates
version=1
nRows=26
nColumns=22
inDegrees=yes

Units are S.I. units (second, meters, Newtons, ...)
If the header above contains a line with 'inDegrees', this indicates whether rotational values are in degrees (yes) or radians (no).

endheader
time	pelvis_tilt	pelvis_list	pelvis_rotation	pelvis_tx	pelvis_ty	pelvis_tz	hip_flexion_r	hip_adduction_r	hip_rotation_r	knee_angle_r	ankle_angle_r	subtalar_angle_r	hip_flexion_l	hip_adduction_l	hip_rotation_l	knee_angle_l	ankle_angle_l	subtalar_angle_l	lumbar_extension	lumbar_bending	lumbar_rotation
      2.07000000	      2.75320775	     -1.70762143	    167.89440925	     -0.18656164	      0.97499138	      0.85230174	     31.27095253	     -7.28773499	    -26.98909071	    -22.84272559	     -1.24957351	     -2.80271078	    -15.00375703	     -5.99198455	     -7.45220977	    -20.45366176	      3.34967379	     16.52723578	     -5.34585810	      1.34103258	     -7.13653317
      2.08000000	      2.78878154	     -1.63693944	    167.57457730	     -0.19559621	      0.97711017	      0.84394623	     30.95529489	     -6.83358923	    -26.83814563	    -23.36337836	     -1.15052297	     -3.37408246	    -14.60569911	     -6.42761607	     -7.28245291	    -21.83488177	      0.90553536	     16.71592249	     -5.11485672	      1.57855940	     -7.03668694
      2.09000000	      2.80559910	     -1.54642781	    167.22800057	     -0.20454112	      0.97925570	      0.83554184	     30.57925881	     -6.34013094	    -26.65580250	    -23.81378273	     -1.04631348	     -3.71906920	    -14.10868705	     -6.88954052	     -7.32785444	    -23.33293004	     -1.59515804	     16.43258975	     -4.89721535	      1.82635963	     -6.91689259
      2.10000000	      2.83975421	     -1.47755819	    166.87530487	     -0.21323569	      0.98132985	      0.82711838	     30.23137144	     -5.82188169	    -26.35283812	    -24.21604683	     -0.84077854	     -4.11890975	    -13.43088882	     -7.38331876	     -7.62227258	    -25.00104561	     -4.07707518	     15.83323860	     -4.66628001	      2.03280415	     -6.80279679
      2.11000000	      2.90839913	     -1.42304516	    166.48430474	     -0.22157315	      0.98328304	      0.81859647	     29.91669613	     -5.22695463	    -25.86878909	    -24.53437987	     -0.60108889	     -4.62797948	    -12.58995474	     -7.91129102	     -7.93813576	    -26.87715453	     -6.44605557	     15.48865112	     -4.42605332	      2.21453537	     -6.70112470
      2.12000000	      2.96377070	     -1.38656109	    166.10874667	     -0.22965831	      0.98511969	      0.81002235	     29.56212892	     -4.63655672	    -25.40575595	    -24.80788842	     -0.22531249	     -5.11769518	    -11.62207977	     -8.42873427	     -8.11432138	    -28.98613158	     -8.59391115	     15.32273162	     -4.21991174	      2.35277600	     -6.66242001
      2.13000000	      2.96826979	     -1.32199764	    165.75054283	     -0.23764116	      0.98692170	      0.80145952	     29.09036883	     -4.04189733	    -25.02047419	    -25.01522830	      0.26901661	     -5.37772563	    -10.54106117	     -8.96209276	     -8.23115965	    -31.38666345	    -10.59056982	     15.25363876	     -4.08105511	      2.49876888	     -6.67007224
      2.14000000	      2.92939356	     -1.21284918	    165.41277795	     -0.24551989	      0.98870942	      0.79301884	     28.51897723	     -3.43600758	    -24.72617183	    -25.15117805	      0.81520218	     -5.47260616	     -9.35772243	     -9.54617713	     -8.33289753	    -34.03836394	    -12.40979369	     15.26863961	     -4.00939572	      2.68579073	     -6.69403012
      2.15000000	      2.87617009	     -1.05909037	    165.10071943	     -0.25318721	      0.99052367	      0.78468783	     27.87842497	     -2.78112817	    -24.43499450	    -25.17512001	      1.23876241	     -5.56514082	     -8.08384034	    -10.20833862	     -8.43264602	    -36.82546947	    -13.94838356	     15.28504213	     -3.98478214	      2.90689815	     -6.71006866
      2.16000000	      2.82209551	     -0.84624182	    164.82064967	     -0.26060981	      0.99229530	      0.77639331	     27.18813303	     -2.05676659	    -24.11514840	    -25.12158185	      1.53540468	     -5.74074025	     -6.71806782	    -10.98040902	     -8.53063517	    -39.67313452	    -15.28463025	     15.05201151	     -3.99614275	      3.17075530	     -6.72099619
      2.17000000	      2.73885502	     -0.66452619	    164.55949071	     -0.26780395	      0.99392261	      0.76816982	     26.47797077	     -1.38991519	    -23.82804605	    -25.06609208	      1.96132668	     -5.94353111	     -5.30130375	    -11.63222069	     -8.37308618	    -42.45460614	    -16.43889780	     14.03610751	     -4.04470982	      3.37427336	     -6.73874093
      2.18000000	      2.62273067	     -0.61262908	    164.33157629	     -0.27488855	      0.99550944	      0.76040473	     25.79528513	     -0.91716201	    -23.55739059	    -25.05039322	      2.47602473	     -6.00682764	     -3.86328735	    -11.85704941	     -7.56353251	    -45.01628942	    -16.92294059	     13.46607176	     -4.09781306	      3.45374392	     -6.80437011
      2.19000000	      2.49705036	     -0.66265240	    164.10502838	     -0.28185576	      0.99708098	      0.75307520	     25.15694024	     -0.58377697	    -23.24824102	    -25.07081100	      3.01306537	     -6.04682460	     -2.41702863	    -11.74470924	     -6.36010478	    -47.32664595	    -16.57494494	     12.92826429	     -4.13449369	      3.45144993	     -6.87360701
      2.20000000	      2.39606964	     -0.68797134	    163.86472549	     -0.28867957	      0.99859712	      0.74589117	     24.51570215	     -0.22618504	    -22.96919162	    -25.04234209	      3.49391229	     -6.09643599	     -0.92857605	    -11.55700839	     -5.08744570	    -49.51280962	    -15.52887581	     12.28881479	     -4.15128243	      3.48980668	     -6.93455082
      2.21000000	      2.29138158	     -0.67458682	    163.59539453	     -0.29536085	      1.00004798	      0.73869911	     23.81024077	      0.17975100	    -22.77548544	    -24.90219736	      3.96675114	     -6.12660190	      0.57675756	    -11.32985030	     -3.86379310	    -51.60577497	    -14.16239250	     11.54723836	     -4.18324597	      3.55313568	     -6.96633016
      2.22000000	      2.17612643	     -0.62437145	    163.25646450	     -0.30182714	      1.00140858	      0.73139698	     23.03120583	      0.65499867	    -22.61085405	    -24.63645598	      4.44261685	     -6.09507996	      2.05592508	    -11.10197501	     -2.78951783	    -53.53423737	    -12.76700078	     11.05439209	     -4.24533131	      3.62621139	     -6.92800247
      2.23000000	      2.09562475	     -0.54262007	    162.84651694	     -0.30802907	      1.00267949	      0.72395054	     22.23978779	      1.20689216	    -22.42495221	    -24.27672999	      4.87658485	     -6.01128471	      3.54377769	    -10.92670360	     -1.90370931	    -55.28077861	    -11.46503455	     10.98660898	     -4.28459576	      3.71396572	     -6.82374557
      2.24000000	      2.07117950	     -0.44446249	    162.36672113	     -0.31399940	      1.00394966	      0.71632477	     21.46224876	      1.82831581	    -22.18848292	    -23.82610840	      5.23963226	     -5.88717310	      5.04441013	    -10.83897543	     -1.24580165	    -56.86259813	    -10.15390235	     11.36139162	     -4.26565407	      3.80930820	     -6.65850845
      2.25000000	      2.04690465	     -0.32977723	    161.80663441	     -0.31975312	      1.00528172	      0.70849971	     20.64571784	      2.50477920	    -21.86770983	    -23.29728351	      5.60600658	     -5.69929929	      6.47555226	    -10.81069587	     -0.76993251	    -58.23076079	     -8.65571018	     12.07468845	     -4.25847594	      3.89091512	     -6.41512752
      2.26000000	      1.95569620	     -0.22886942	    161.17997936	     -0.32527769	      1.00665308	      0.70054759	     19.74941568	      3.16356117	    -21.47429846	    -22.73637613	      6.04508624	     -5.44917962	      7.77990791	    -10.73325238	     -0.36004065	    -59.34760849	     -7.00349054	     12.69758116	     -4.33913750	      3.90354316	     -6.12427413
      2.27000000	      1.86010446	     -0.14752663	    160.42771038	     -0.33067272	      1.00797126	      0.69237019	     18.80821074	      3.84926836	    -20.93527214	    -22.07917395	      6.40662138	     -5.24600308	      8.99521417	    -10.62355470	     -0.05320051	    -60.22084620	     -5.48018823	     12.71119841	     -4.41064763	      3.86116480	     -5.71148666
      2.28000000	      1.75646535	     -0.10759785	    159.56523222	     -0.33585136	      1.00921595	      0.68409764	     17.87389520	      4.49685921	    -20.32381707	    -21.41594166	      6.76336754	     -4.97121132	     10.16073175	    -10.45008058	      0.20664531	    -60.88977977	     -4.20284954	     12.47688130	     -4.48459894	      3.76097634	     -5.24221271
      2.29000000	      1.63565782	     -0.06567586	    158.61709844	     -0.34081474	      1.01043451	      0.67570591	     16.90707522	      5.14668288	    -19.59935471	    -20.74323188	      7.11843244	     -4.62303524	     11.27542423	    -10.27982336	      0.40469747	    -61.31692007	     -2.95165335	     12.23431537	     -4.58704417	      3.65799995	     -4.76624118
      2.30000000	      1.52323843	     -0.01229515	    157.62580034	     -0.34565530	      1.01158409	      0.66717039	     15.89530717	      5.81778601	    -18.77918822	    -20.00605963	      7.42699620	     -4.30344917	     12.34389187	    -10.14223315	      0.56233028	    -61.46859605	     -1.83029211	     12.15183743	     -4.67584457	      3.56166515	     -4.29827090
      2.31000000	      1.46077098	      0.05859183	    156.63970812	     -0.35026783	      1.01255148	      0.65871742	     14.91232820	      6.49866148	    -17.91632070	    -19.24692288	      7.70250472	     -3.83926427	     13.41584046	    -10.03603467	      0.72984077	    -61.46004281	     -0.77047738	     12.20406148	     -4.73923151	      3.49497792	     -3.84658147
      2.32000000	      1.49328624	      0.10404286	    155.63252351	     -0.35468209	      1.01327037	      0.65037406	     14.02779670	      7.15821717	    -17.09069762	    -18.49404650	      7.97173053	     -3.48147903	     14.54714822	     -9.94499466	      0.86670587	    -61.28937527	      0.34904111	     12.09513959	     -4.70824150	      3.44098177	     -3.38322796
